<svg xmlns="http://www.w3.org/2000/svg" xmlns:xlink="http://www.w3.org/1999/xlink" viewBox="0 0 1365.91 749"><defs><style>.cls-1{fill:url(#linear-gradient);}</style><linearGradient id="linear-gradient" x1="900.02" y1="-1.49" x2="350.04" y2="951.1" gradientUnits="userSpaceOnUse"><stop offset="0" stop-color="#23b3ff"/><stop offset="1" stop-color="#6debec"/></linearGradient></defs><g id="Layer_2" data-name="Layer 2"><g id="Layer_1-2" data-name="Layer 1"><path class="cls-1" d="M274.33,746c9.47-.56,19.6-8.89,27.95-12.71a245.66,245.66,0,0,1,35.94-13.11,269.25,269.25,0,0,1,72.38-9.77c24.83,0,49.35,4.71,73.06,12,11.8,3.65,23.41,7.92,34.91,12.46,10.18,4,18.53,11.63,30,9.8,10.72-1.71,19.76-8.13,29.53-12.48,10-4.43,20.88-7.65,31.3-10.76A257.51,257.51,0,0,1,683,710.43c45.54,0,86.75,15.46,128.19,33,13.17,5.58,23-3.08,35-7.86,11.81-4.7,23.74-9.1,35.86-12.87,23.77-7.38,48.39-12.3,73.3-12.3,25.24,0,50.22,4.91,74.33,12.3,12.12,3.72,24,8.08,35.81,12.79,9.38,3.76,22.14,13.29,31.92,8.61,40.75-19.48,85-33.7,130.34-33.7A266.09,266.09,0,0,1,1365.91,749c-.14-66.59-.41-213.2-.41-382.56-24.46-56.07-59.88-137.25-141-180.38-121.25-64.46-218.53,23.14-359-27.67C776.07,126,718.16,55.29,683,0H0V749a266.11,266.11,0,0,1,138.2-38.57,258,258,0,0,1,71.73,10.47c18.07,5.24,34.22,12.54,50.94,21.18,3.75,1.93,7.69,3.8,11.88,4C273.28,746.05,273.8,746.05,274.33,746Z"/></g></g></svg>